# xmcd
#
# Track frame offsets: 
#        150
#        15330
#        27950
#        40480
#        50932
#        64772
#        74830
#        91440
#        107420
#        122097
#
# Disc length: 1804 seconds
#
# Revision: 0
# Processed by: cddbd v1.4PL0 Copyright (c) Steve Scherf et al.
# Submitted via: ExactAudioCopy v0.95a3
#
DISCID=8c070a0a
DTITLE=Billy Joe Shaver - Salt of the Earth
DYEAR=1987
DGENRE=Country
TTITLE0=Sweet Mama
TTITLE1=Hardworkin' Man
TTITLE2=Manual Labor
TTITLE3=Hill Country Love Song
TTITLE4=You Just Can't Beat Jesus Christ
TTITLE5=The Devil Made Me Do It the First Time
TTITLE6=Fun While It Lasted
TTITLE7=Fun While It Lasted
TTITLE8=Street Walkin' Woman
TTITLE9=Good News Blues
EXTD=Songwriter: Billy Joe Shaver\nKomponist: Billy Joe Shaver\nArrang
EXTD=ement: Neil Wilburn, Joe Hardy, D.M.Furguson, Stuart Sullivan\n(c
EXTD=)1987 CBS Inc. Manufactured by Columbia Records/CBS Inc\nKatalog:
EXTD=Columbia Records 1987 - FC 40903\nupc 07464409031
EXTT0=
EXTT1=
EXTT2=
EXTT3=
EXTT4=
EXTT5=
EXTT6=
EXTT7=
EXTT8=
EXTT9=
PLAYORDER=
